<?xml version="1.0" encoding="iso-8859-1"?>
<!-- Generator: Adobe Illustrator 19.0.0, SVG Export Plug-In . SVG Version: 6.00 Build 0)  -->
<svg version="1.1" id="Capa_1" xmlns="http://www.w3.org/2000/svg" xmlns:xlink="http://www.w3.org/1999/xlink" x="0px" y="0px"
	 viewBox="0 0 512 512" style="enable-background:new 0 0 512 512;" xml:space="preserve">
<polygon style="fill:#FEDBAB;" points="412.015,290.833 369.589,333.26 327.162,333.26 178.67,184.767 178.67,142.341 
	284.736,36.275 323.769,32.882 412.015,121.128 425.167,214.042 "/>
<polygon style="fill:#FEC478;" points="412.015,290.833 369.589,333.26 327.162,333.26 252.916,259.014 401.408,110.521 
	412.015,121.128 425.167,214.042 "/>
<path style="fill:#6E77E5;" d="M144.85,452.073l-42.426,42.426c-23.334,23.334-61.519,23.334-84.853,0s-23.334-61.519,0-84.853
	l42.426-42.426h42.426l42.426,42.426L144.85,452.073L144.85,452.073z"/>
<path d="M337.769,4.455c-5.863-5.863-15.351-5.863-21.213,0C322.414-1.404,331.911-1.402,337.769,4.455z"/>
<path style="fill:#FEA832;" d="M507.474,195.374l-95.459,95.459c-11.667,11.667-30.759,11.667-42.426,0s-11.667-30.759,0-42.426
	l42.426-42.426c-11.667,11.667-30.759,11.667-42.426,0s-11.667-30.759,0-42.426l21.213-21.213L284.736,36.275l31.82-31.82
	c5.94-5.94,15.273-5.94,21.213,0l169.706,169.706C513.415,180.101,513.415,189.434,507.474,195.374z"/>
<path style="fill:#FE9923;" d="M507.474,195.374l-95.459,95.459c-11.667,11.667-30.759,11.667-42.426,0s-11.667-30.759,0-42.426
	l42.426-42.426c-11.667,11.667-30.759,11.667-42.426,0s-11.667-30.759,0-42.426l21.213-21.213l-10.607-10.607l42.426-42.426
	l84.853,84.853C513.415,180.101,513.415,189.434,507.474,195.374z"/>
<path style="fill:#4C5CE1;" d="M144.85,452.073l-42.426,42.426c-23.334,23.334-61.519,23.334-84.853,0l106.066-106.066
	l21.213,21.213L144.85,452.073L144.85,452.073z"/>
<path style="fill:#7986E8;" d="M369.589,333.26l-21.213,21.213c-23.334,23.334-61.519,23.334-84.853,0
	c-5.94-5.94-15.273-5.94-21.213,0l-97.459,97.6L59.997,367.22l97.459-97.6c5.94-5.94,5.94-15.273,0-21.213
	c-23.334-23.334-23.334-61.519,0-84.853l21.213-21.213L369.589,333.26z"/>
<path style="fill:#6E77E5;" d="M274.129,237.8l95.459,95.459l-21.213,21.213c-23.334,23.334-61.519,23.334-84.853,0
	c-5.94-5.94-15.273-5.94-21.213,0l-97.459,97.6l-42.426-42.426L274.129,237.8z"/>
<g>
</g>
<g>
</g>
<g>
</g>
<g>
</g>
<g>
</g>
<g>
</g>
<g>
</g>
<g>
</g>
<g>
</g>
<g>
</g>
<g>
</g>
<g>
</g>
<g>
</g>
<g>
</g>
<g>
</g>
</svg>
